PathFileType	4	(x/y/z)	S06_PSF_T02
DataRate	CameraRate	NumFrames	NumMarkers	Units	OrigDataRate	OrigDataStartFrame	OrigNumFrames
240	240	9	51	mm	240	302	402
Frame#	Time	Sternum			R.Acromium			L.Acromium			Top.Head			R.ASIS			L.ASIS			R.PSIS			L.PSIS			R.Great.Tro			L.Great.Tro			R.Iliac.Crest			L.Iliac.Crest			V.Sacral			R.Thigh.Upper.Post			R.Thigh.Lower.Ant			R.Thigh.Lower.Post			R.Thigh.Upper.Ant			R.Knee.Lat			R.Knee.Med			R.Shank.Upper.Post			R.Shank.Lower.Ant			R.Shank.Lower.Post			R.Shank.Upper.Ant			R.Ankle.Lat			R.Ankle.Med			R.Heel.Upper			R.Heel.Med			R.Heel.Lat			R.Toe.Lat			R.Toe.Med			R.Toe.Tip			L.Thigh.Upper.Post			L.Thigh.Lower.Ant			L.Thigh.Lower.Post			L.Thigh.Upper.Ant			L.Knee.Lat			L.Knee.Med			L.Shank.Upper.Post			L.Shank.Lower.Ant			L.Shank.Lower.Post			L.Shank.Upper.Ant			L.Ankle.Lat			L.Ankle.Med			L.Heel.Upper			L.Heel.Med			L.Heel.Lat			L.Toe.Lat			L.Toe.Med			L.Toe.Tip			Cervical.Spine			Back			
		X1	Y1	Z1	X2	Y2	Z2	X3	Y3	Z3	X4	Y4	Z4	X5	Y5	Z5	X6	Y6	Z6	X7	Y7	Z7	X8	Y8	Z8	X9	Y9	Z9	X10	Y10	Z10	X11	Y11	Z11	X12	Y12	Z12	X13	Y13	Z13	X14	Y14	Z14	X15	Y15	Z15	X16	Y16	Z16	X17	Y17	Z17	X18	Y18	Z18	X19	Y19	Z19	X20	Y20	Z20	X21	Y21	Z21	X22	Y22	Z22	X23	Y23	Z23	X24	Y24	Z24	X25	Y25	Z25	X26	Y26	Z26	X27	Y27	Z27	X28	Y28	Z28	X29	Y29	Z29	X30	Y30	Z30	X31	Y31	Z31	X32	Y32	Z32	X33	Y33	Z33	X34	Y34	Z34	X35	Y35	Z35	X36	Y36	Z36	X37	Y37	Z37	X38	Y38	Z38	X39	Y39	Z39	X40	Y40	Z40	X41	Y41	Z41	X42	Y42	Z42	X43	Y43	Z43	X44	Y44	Z44	X45	Y45	Z45	X46	Y46	Z46	X47	Y47	Z47	X48	Y48	Z48	X49	Y49	Z49	X50	Y50	Z50	X51	Y51	Z51	

302	1.2542	170.24	1282	322.48	43.512	1491.2	487.2	34.383	1485.7	136.09	79.541	1805.3	309.48	120.36	1043.4	447.86	140.52	1053.1	193.43	-72.291	1061.9	343.42	-68.627	1067.1	263.07	59.312	964.63	491.28	51.423	973.88	134.27	32.904	1115.9	475.65	64.656	1119.1	153.56	-83.045	1029.4	305.05	63.447	714.76	492.52	125.29	634.83	473.3	56.244	626.27	478.54	136.49	725.29	483.66	65.559	519.49	473.44	93.41	513.07	346.51	-126.67	403.66	469.72	-139.06	317	446.54	-189.44	360.06	454.83	-77.766	361.28	462.53	-270.08	259.59	430.86	-253.07	252.88	343.55	-327.47	294.63	382.56	-350.9	277	348.93	-354.29	271.83	413.94	-291.97	103.77	442.86	-267.58	96.019	325.23	-227.19	41.601	366.89	161.76	724.03	157.11	220.74	657.94	222.67	158.32	635.48	179.32	217.13	749.64	196.61	162.07	542.87	196.92	182.73	556.38	316.73	135.54	312.49	210.87	203.93	255.81	218.52	134.73	241	229.54	200.66	325.92	205.15	191.55	105.8	234.83	196.57	128.55	322.17	111.87	70.948	279.02	117.52	44.468	311.96	121.25	45.314	250.16	303.45	45.208	221.07	315.59	51.875	340.1	390.27	67.348	289.96	-14.224	1540.4	312.79	-69.999	1267.2	314.35
303	1.2583	175.48	1282.5	322.58	48.682	1491.8	487.16	40.046	1486.2	136.03	85.123	1805.8	309.24	125.49	1043.7	447.5	145.8	1053.8	193.1	-67.053	1062.3	343.08	-63.422	1067.6	262.7	64.826	964.82	490.89	56.559	974.67	133.87	38.017	1116	475.42	69.95	1119.8	153.33	-77.897	1030	304.6	72.76	715.13	492.54	135.64	635.93	473.21	66.577	626.55	478.64	145.62	726.53	483.24	77.325	520.07	473.68	104.55	513.84	346.47	-115.08	405.21	470.35	-128.08	318.76	447.01	-178.22	362.05	455.74	-66.464	362.66	462.87	-259.66	262.41	431.61	-242.71	255.27	344.34	-317.03	297.5	383.02	-340.56	279.66	349.58	-343.9	275.04	414.64	-282	107.02	444.75	-257.68	98.091	327.35	-217.46	42.997	369.42	165.53	724.2	156.71	224.23	657.83	222.25	161.66	635.69	179.01	221.18	749.54	196.03	164.92	543.01	196.7	185.86	556.52	316.47	137	312.75	210.99	205.05	255.67	218.53	135.8	241.29	229.72	202.18	325.77	205.07	191.85	105.85	235.02	196.99	128.57	322.32	111.9	71.021	279.08	117.55	44.505	311.99	121.29	45.416	250.19	303.52	45.153	221.08	315.72	51.409	340.25	390.45	66.676	290.09	-8.8206	1541	312.66	-64.755	1267.8	314.11
304	1.2625	180.71	1282.9	322.68	53.838	1492.3	487.13	45.686	1486.7	135.99	90.702	1806.3	309.02	130.58	1044.1	447.15	151.06	1054.4	192.77	-61.861	1062.7	342.74	-58.25	1068.2	262.33	70.301	965.05	490.52	61.653	975.4	133.48	43.094	1116.2	475.18	75.234	1120.4	153.09	-72.778	1030.5	304.17	82.054	715.62	492.54	145.96	637.15	473.09	76.892	626.95	478.72	154.71	727.87	482.75	89.052	520.78	473.88	115.6	514.76	346.38	-103.48	406.74	470.91	-117.01	320.47	447.45	-166.93	363.95	456.57	-55.11	364.07	463.17	-249.1	265.04	432.29	-232.16	257.47	345.09	-306.53	300.01	383.37	-330.1	281.89	350.13	-333.39	277.86	415.23	-271.53	110.12	446.69	-247.24	99.991	329.51	-207.07	44.504	372.05	169.21	724.35	156.34	227.65	657.69	221.84	164.9	635.89	178.73	225.16	749.42	195.48	167.67	543.14	196.5	188.9	556.63	316.24	138.39	312.99	211.13	206.11	255.53	218.53	136.81	241.57	229.92	203.63	325.61	205.01	192.13	105.91	235.21	197.39	128.59	322.47	111.93	71.098	279.14	117.58	44.54	312.03	121.34	45.518	250.22	303.58	45.109	221.08	315.85	50.97	340.4	390.61	66.045	290.21	-3.4293	1541.5	312.55	-59.527	1268.4	313.87
305	1.2667	185.93	1283.3	322.78	58.98	1492.8	487.12	51.301	1487.2	135.95	96.277	1806.8	308.82	135.65	1044.4	446.81	156.28	1055.1	192.45	-56.712	1063.1	342.4	-53.109	1068.7	261.95	75.738	965.32	490.16	66.706	976.1	133.11	48.138	1116.5	474.94	80.508	1121.1	152.85	-67.686	1031	303.74	91.321	716.21	492.51	156.25	638.49	472.93	87.183	627.48	478.77	163.74	729.32	482.23	100.73	521.62	474.03	126.59	515.81	346.24	-91.883	408.24	471.4	-105.84	322.13	447.86	-155.59	365.75	457.33	-43.709	365.49	463.43	-238.37	267.45	432.89	-221.41	259.46	345.79	-295.96	302.17	383.62	-319.53	283.71	350.59	-322.78	280.29	415.74	-260.57	113.04	448.65	-236.29	101.71	331.69	-196.06	46.088	374.72	172.82	724.49	156	231	657.54	221.44	168.06	636.08	178.46	229.07	749.28	194.97	170.33	543.25	196.32	191.84	556.73	316.03	139.72	313.23	211.29	207.11	255.39	218.54	137.77	241.85	230.13	205.01	325.46	204.94	192.39	105.97	235.41	197.79	128.61	322.62	111.96	71.178	279.19	117.61	44.575	312.06	121.37	45.621	250.26	303.63	45.071	221.09	315.97	50.557	340.53	390.77	65.451	290.31	1.9506	1542.1	312.46	-54.315	1269	313.62
306	1.2708	191.14	1283.7	322.88	64.109	1493.3	487.11	56.892	1487.7	135.92	101.85	1807.3	308.65	140.68	1044.7	446.47	161.47	1055.6	192.14	-51.601	1063.5	342.06	-47.995	1069.2	261.58	81.141	965.62	489.82	71.718	976.75	132.75	53.155	1116.7	474.69	85.77	1121.7	152.62	-62.618	1031.6	303.33	100.56	716.91	492.47	166.5	639.95	472.73	97.444	628.13	478.8	172.71	730.87	481.66	112.35	522.59	474.14	137.5	516.98	346.05	-80.294	409.72	471.84	-94.57	323.73	448.24	-144.19	367.44	458	-32.267	366.91	463.67	-227.49	269.65	433.44	-210.48	261.23	346.45	-285.33	303.97	383.81	-308.83	285.11	350.99	-312.04	282.33	416.18	-249.15	115.76	450.63	-224.86	103.23	333.88	-184.44	47.718	377.43	176.37	724.63	155.7	234.29	657.36	221.05	171.16	636.25	178.2	232.93	749.12	194.48	172.91	543.36	196.15	194.7	556.8	315.82	140.99	313.46	211.46	208.06	255.26	218.54	138.69	242.11	230.35	206.32	325.31	204.87	192.63	106.02	235.6	198.17	128.64	322.77	111.99	71.263	279.25	117.64	44.609	312.1	121.41	45.724	250.3	303.67	45.036	221.09	316.09	50.169	340.66	390.91	64.892	290.41	7.3192	1542.7	312.37	-49.116	1269.6	313.36
307	1.275	196.33	1284.1	322.98	69.227	1493.7	487.12	62.458	1488.2	135.9	107.42	1807.8	308.5	145.7	1045.1	446.15	166.62	1056.2	191.84	-46.525	1064	341.72	-42.908	1069.8	261.21	86.51	965.97	489.5	76.691	977.38	132.42	58.147	1117	474.44	91.022	1122.3	152.38	-57.573	1032.1	302.93	109.75	717.71	492.41	176.7	641.52	472.5	107.67	628.89	478.8	181.62	732.52	481.06	123.9	523.67	474.2	148.34	518.27	345.83	-68.721	411.17	472.21	-83.212	325.26	448.61	-132.75	369.01	458.6	-20.788	368.34	463.88	-216.45	271.6	433.95	-199.38	262.78	347.08	-274.62	305.41	383.94	-298.02	286.1	351.35	-301.18	283.97	416.57	-237.28	118.26	452.61	-212.98	104.55	336.06	-172.27	49.361	380.13	179.87	724.76	155.41	237.53	657.17	220.68	174.19	636.42	177.96	236.72	748.95	194.03	175.4	543.46	195.99	197.5	556.86	315.63	142.21	313.69	211.62	208.97	255.13	218.54	139.57	242.37	230.56	207.59	325.16	204.81	192.86	106.08	235.78	198.54	128.67	322.91	112.02	71.353	279.31	117.66	44.645	312.14	121.45	45.826	250.35	303.72	45.004	221.09	316.21	49.806	340.77	391.04	64.365	290.49	12.677	1543.3	312.3	-43.93	1270.1	313.1
308	1.2792	201.51	1284.5	323.08	74.334	1494.2	487.13	68	1488.7	135.88	112.98	1808.3	308.37	150.68	1045.5	445.83	171.74	1056.7	191.56	-41.478	1064.4	341.38	-37.844	1070.2	260.85	91.85	966.35	489.19	81.624	977.97	132.1	63.119	1117.3	474.19	96.262	1122.8	152.15	-52.547	1032.6	302.54	118.9	718.61	492.34	186.83	643.2	472.22	117.85	629.77	478.78	190.46	734.27	480.43	135.38	524.87	474.22	159.13	519.67	345.58	-57.168	412.57	472.52	-71.769	326.7	448.95	-121.26	370.45	459.12	-9.2762	369.75	464.07	-205.25	273.3	434.42	-188.1	264.1	347.68	-263.83	306.5	384.05	-287.09	286.7	351.68	-290.19	285.23	416.92	-225	120.52	454.58	-200.69	105.67	338.21	-159.57	50.99	382.8	183.32	724.89	155.16	240.73	656.98	220.3	177.16	636.59	177.72	240.46	748.76	193.62	177.83	543.56	195.84	200.22	556.91	315.45	143.39	313.91	211.78	209.85	255.01	218.53	140.43	242.63	230.77	208.81	325.03	204.74	193.08	106.15	235.96	198.9	128.7	323.04	112.05	71.447	279.36	117.68	44.683	312.17	121.48	45.928	250.39	303.75	44.97	221.09	316.32	49.469	340.88	391.16	63.869	290.56	18.023	1543.8	312.24	-38.756	1270.7	312.84
309	1.2833	206.68	1284.8	323.17	79.433	1494.6	487.16	73.518	1489.2	135.87	118.54	1808.8	308.27	155.65	1045.9	445.53	176.83	1057.2	191.29	-36.458	1064.8	341.04	-32.802	1070.7	260.49	97.162	966.77	488.9	86.52	978.53	131.8	68.075	1117.6	473.94	101.49	1123.3	151.92	-47.539	1033.2	302.17	128	719.6	492.25	196.88	644.97	471.91	127.98	630.75	478.73	199.23	736.09	479.79	146.78	526.18	474.19	169.87	521.17	345.3	-45.638	413.92	472.78	-60.243	328.05	449.28	-109.73	371.75	459.56	2.2665	371.14	464.24	-193.89	274.74	434.86	-176.66	265.18	348.25	-252.94	307.23	384.13	-276.05	286.91	352	-279.07	286.09	417.26	-212.33	122.53	456.51	-188.01	106.59	340.32	-146.38	52.576	385.42	186.74	725.02	154.92	243.89	656.77	219.94	180.09	636.76	177.49	244.16	748.57	193.23	180.2	543.65	195.7	202.89	556.94	315.27	144.54	314.13	211.92	210.71	254.89	218.51	141.26	242.88	230.96	210	324.89	204.67	193.28	106.21	236.12	199.25	128.74	323.16	112.07	71.545	279.4	117.7	44.724	312.21	121.52	46.028	250.43	303.79	44.936	221.08	316.43	49.157	340.97	391.28	63.403	290.62	23.359	1544.4	312.19	-33.594	1271.3	312.57
310	1.2875	211.84	1285.2	323.25	84.523	1495.1	487.18	79.012	1489.7	135.87	124.09	1809.3	308.2	160.59	1046.3	445.23	181.89	1057.6	191.03	-31.46	1065.3	340.7	-27.779	1071.2	260.13	102.45	967.22	488.63	91.378	979.07	131.51	73.02	1117.9	473.69	106.71	1123.9	151.7	-42.546	1033.7	301.82	137.04	720.68	492.15	206.84	646.85	471.56	138.05	631.83	478.67	207.91	738	479.12	158.1	527.58	474.11	180.56	522.76	344.99	-34.133	415.21	472.99	-48.638	329.31	449.6	-98.169	372.91	459.94	13.837	372.51	464.4	-182.36	275.91	435.29	-165.07	266.02	348.8	-241.96	307.62	384.22	-264.88	286.74	352.33	-267.81	286.56	417.61	-199.27	124.27	458.41	-174.96	107.29	342.38	-132.75	54.096	387.95	190.12	725.16	154.7	247.02	656.57	219.57	182.99	636.93	177.26	247.81	748.37	192.87	182.52	543.75	195.56	205.51	556.96	315.09	145.66	314.34	212.04	211.54	254.79	218.49	142.07	243.14	231.13	211.16	324.77	204.59	193.48	106.27	236.28	199.59	128.79	323.26	112.1	71.647	279.44	117.73	44.768	312.24	121.56	46.126	250.46	303.82	44.899	221.07	316.54	48.871	341.05	391.39	62.966	290.67	28.684	1545	312.14	-28.443	1271.9	312.29
